# xmcd
#
# Track frame offsets: 
#        150
#        19186
#        41997
#        58996
#        80099
#        93776
#        114802
#        136819
#        159260
#        178606
#        200861
#        219207
#
# Disc length: 3152 seconds
#
# Revision: 0
# Processed by: cddbd v1.5.2PL0 Copyright (c) Steve Scherf et al.
# Submitted via: ExactAudioCopy v0.95b4
#
DISCID=a00c4e0c
DTITLE=Arcana - Virgen
DYEAR=2003
DGENRE=Rock
TTITLE0=Pasto Seco De Abril
TTITLE1=Caidos Del Nido
TTITLE2=Dos Embriones
TTITLE3=Irreal
TTITLE4=Green Card, Please
TTITLE5=Destellos
TTITLE6=Parque Gris
TTITLE7=Patético Amor
TTITLE8=Dr. ADN
TTITLE9=Radio En Actividad
TTITLE10=Tiernas Cuitas
TTITLE11=Cara Acalambrada
EXTD=
EXTT0=
EXTT1=
EXTT2=
EXTT3=
EXTT4=
EXTT5=
EXTT6=
EXTT7=
EXTT8=
EXTT9=
EXTT10=
EXTT11=
PLAYORDER=
